<?xml version="1.0" encoding="UTF-8"?>
<svg xmlns="http://www.w3.org/2000/svg" xmlns:xlink="http://www.w3.org/1999/xlink" width="854" height="480" viewBox="0 0 854 480">
<defs>
<g>
<g id="glyph-0-0">
<path d="M 0.125 -0.140625 C 0.441406 -0.164062 0.648438 -0.210938 0.742188 -0.28125 C 0.835938 -0.355469 0.882812 -0.542969 0.882812 -0.84375 L 0.882812 -4.300781 C 0.882812 -4.589844 0.835938 -4.773438 0.742188 -4.855469 C 0.648438 -4.9375 0.441406 -4.984375 0.125 -5 L 0.125 -5.144531 L 2.425781 -5.144531 L 2.425781 -5 C 2.109375 -4.984375 1.90625 -4.9375 1.8125 -4.855469 C 1.71875 -4.773438 1.671875 -4.589844 1.671875 -4.300781 L 1.671875 -0.84375 C 1.671875 -0.542969 1.71875 -0.355469 1.8125 -0.28125 C 1.90625 -0.210938 2.109375 -0.164062 2.425781 -0.140625 L 2.425781 0 L 0.125 0 Z "/>
</g>
<g id="glyph-0-1">
<path d="M 0.140625 -0.105469 C 0.320312 -0.128906 0.445312 -0.175781 0.519531 -0.242188 C 0.589844 -0.308594 0.625 -0.457031 0.625 -0.691406 L 0.625 -2.617188 C 0.625 -2.777344 0.613281 -2.890625 0.582031 -2.957031 C 0.535156 -3.054688 0.433594 -3.101562 0.285156 -3.101562 C 0.261719 -3.101562 0.238281 -3.101562 0.214844 -3.097656 C 0.191406 -3.097656 0.160156 -3.09375 0.125 -3.085938 L 0.125 -3.21875 C 0.230469 -3.25 0.476562 -3.328125 0.863281 -3.457031 L 1.21875 -3.574219 C 1.238281 -3.574219 1.246094 -3.566406 1.25 -3.554688 C 1.253906 -3.542969 1.257812 -3.523438 1.257812 -3.5 L 1.257812 -2.941406 C 1.488281 -3.160156 1.671875 -3.308594 1.804688 -3.390625 C 2 -3.515625 2.207031 -3.578125 2.417969 -3.578125 C 2.589844 -3.578125 2.75 -3.527344 2.890625 -3.429688 C 3.164062 -3.238281 3.300781 -2.894531 3.300781 -2.398438 L 3.300781 -0.625 C 3.300781 -0.445312 3.335938 -0.3125 3.410156 -0.230469 C 3.484375 -0.148438 3.605469 -0.109375 3.777344 -0.105469 L 3.777344 0 L 2.15625 0 L 2.15625 -0.105469 C 2.339844 -0.132812 2.472656 -0.183594 2.542969 -0.261719 C 2.617188 -0.335938 2.65625 -0.503906 2.65625 -0.761719 L 2.65625 -2.386719 C 2.65625 -2.601562 2.613281 -2.78125 2.53125 -2.925781 C 2.453125 -3.070312 2.300781 -3.140625 2.085938 -3.140625 C 1.9375 -3.140625 1.785156 -3.089844 1.628906 -2.988281 C 1.542969 -2.929688 1.433594 -2.835938 1.296875 -2.699219 L 1.296875 -0.574219 C 1.296875 -0.390625 1.335938 -0.269531 1.417969 -0.207031 C 1.496094 -0.144531 1.625 -0.113281 1.800781 -0.105469 L 1.800781 0 L 0.140625 0 Z "/>
</g>
<g id="glyph-0-2">
<path d="M 1.976562 -3.5 L 1.976562 -3.226562 L 1.203125 -3.226562 L 1.195312 -1.039062 C 1.195312 -0.847656 1.210938 -0.703125 1.246094 -0.605469 C 1.304688 -0.429688 1.425781 -0.339844 1.601562 -0.339844 C 1.695312 -0.339844 1.773438 -0.363281 1.839844 -0.40625 C 1.90625 -0.449219 1.984375 -0.519531 2.070312 -0.613281 L 2.167969 -0.527344 L 2.085938 -0.414062 C 1.953125 -0.238281 1.8125 -0.113281 1.667969 -0.0390625 C 1.519531 0.0351562 1.378906 0.0703125 1.242188 0.0703125 C 0.941406 0.0703125 0.742188 -0.0625 0.632812 -0.328125 C 0.574219 -0.472656 0.546875 -0.671875 0.546875 -0.925781 L 0.546875 -3.226562 L 0.132812 -3.226562 C 0.121094 -3.234375 0.109375 -3.242188 0.105469 -3.25 C 0.0976562 -3.257812 0.09375 -3.269531 0.09375 -3.28125 C 0.09375 -3.304688 0.101562 -3.324219 0.113281 -3.339844 C 0.125 -3.355469 0.160156 -3.386719 0.21875 -3.4375 C 0.394531 -3.582031 0.519531 -3.699219 0.597656 -3.789062 C 0.675781 -3.878906 0.855469 -4.117188 1.144531 -4.5 C 1.175781 -4.5 1.195312 -4.496094 1.203125 -4.492188 C 1.207031 -4.488281 1.210938 -4.46875 1.210938 -4.433594 L 1.210938 -3.5 Z "/>
</g>
<g id="glyph-0-3">
<path d="M 2.230469 -2.105469 C 1.9375 -2.007812 1.699219 -1.902344 1.507812 -1.785156 C 1.144531 -1.558594 0.960938 -1.304688 0.960938 -1.019531 C 0.960938 -0.789062 1.035156 -0.617188 1.1875 -0.507812 C 1.285156 -0.4375 1.398438 -0.402344 1.519531 -0.402344 C 1.6875 -0.402344 1.847656 -0.449219 2 -0.542969 C 2.152344 -0.636719 2.230469 -0.753906 2.230469 -0.898438 Z M 0.285156 -0.753906 C 0.285156 -1.121094 0.46875 -1.429688 0.835938 -1.675781 C 1.070312 -1.828125 1.53125 -2.03125 2.230469 -2.292969 L 2.230469 -2.617188 C 2.230469 -2.875 2.203125 -3.054688 2.152344 -3.15625 C 2.066406 -3.324219 1.886719 -3.410156 1.617188 -3.410156 C 1.488281 -3.410156 1.367188 -3.378906 1.25 -3.3125 C 1.132812 -3.242188 1.074219 -3.148438 1.074219 -3.03125 C 1.074219 -3 1.082031 -2.949219 1.09375 -2.875 C 1.105469 -2.804688 1.113281 -2.757812 1.113281 -2.738281 C 1.113281 -2.597656 1.066406 -2.496094 0.972656 -2.441406 C 0.917969 -2.410156 0.855469 -2.390625 0.78125 -2.390625 C 0.667969 -2.390625 0.582031 -2.429688 0.519531 -2.503906 C 0.460938 -2.578125 0.429688 -2.660156 0.429688 -2.753906 C 0.429688 -2.929688 0.539062 -3.117188 0.757812 -3.308594 C 0.976562 -3.503906 1.296875 -3.601562 1.71875 -3.601562 C 2.210938 -3.601562 2.542969 -3.441406 2.71875 -3.121094 C 2.8125 -2.945312 2.859375 -2.691406 2.859375 -2.359375 L 2.859375 -0.835938 C 2.859375 -0.6875 2.871094 -0.585938 2.890625 -0.53125 C 2.921875 -0.433594 2.992188 -0.382812 3.09375 -0.382812 C 3.152344 -0.382812 3.203125 -0.390625 3.238281 -0.410156 C 3.277344 -0.429688 3.34375 -0.472656 3.4375 -0.539062 L 3.4375 -0.339844 C 3.355469 -0.242188 3.269531 -0.160156 3.175781 -0.0976562 C 3.035156 -0.00390625 2.886719 0.046875 2.742188 0.046875 C 2.570312 0.046875 2.445312 -0.0117188 2.367188 -0.121094 C 2.289062 -0.234375 2.25 -0.367188 2.242188 -0.519531 C 2.046875 -0.351562 1.882812 -0.230469 1.746094 -0.148438 C 1.515625 -0.0117188 1.296875 0.0585938 1.089844 0.0585938 C 0.871094 0.0585938 0.683594 -0.0195312 0.523438 -0.171875 C 0.363281 -0.324219 0.285156 -0.519531 0.285156 -0.753906 Z "/>
</g>
<g id="glyph-0-4">
<path d="M 0.015625 -0.105469 C 0.257812 -0.125 0.417969 -0.164062 0.496094 -0.226562 C 0.574219 -0.289062 0.613281 -0.429688 0.613281 -0.636719 L 0.613281 -4.441406 C 0.613281 -4.621094 0.582031 -4.738281 0.519531 -4.785156 C 0.460938 -4.832031 0.371094 -4.855469 0.257812 -4.855469 C 0.210938 -4.855469 0.167969 -4.855469 0.132812 -4.851562 C 0.0976562 -4.851562 0.0585938 -4.847656 0.015625 -4.84375 L 0.015625 -4.949219 L 0.355469 -5.039062 C 0.617188 -5.109375 0.839844 -5.171875 1.023438 -5.234375 C 1.132812 -5.269531 1.199219 -5.289062 1.214844 -5.289062 C 1.230469 -5.289062 1.238281 -5.285156 1.242188 -5.28125 C 1.246094 -5.273438 1.25 -5.257812 1.25 -5.238281 L 1.25 -2.042969 L 2.300781 -2.96875 C 2.378906 -3.039062 2.429688 -3.09375 2.457031 -3.132812 C 2.480469 -3.171875 2.496094 -3.207031 2.496094 -3.238281 C 2.496094 -3.296875 2.464844 -3.335938 2.410156 -3.347656 C 2.351562 -3.363281 2.25 -3.375 2.105469 -3.382812 L 2.105469 -3.488281 L 3.6875 -3.488281 L 3.6875 -3.382812 C 3.402344 -3.367188 3.175781 -3.308594 3.003906 -3.214844 C 2.832031 -3.121094 2.5 -2.847656 2.011719 -2.398438 L 1.789062 -2.195312 L 2.492188 -1.285156 C 2.851562 -0.816406 3.121094 -0.507812 3.304688 -0.355469 C 3.488281 -0.203125 3.679688 -0.117188 3.886719 -0.0976562 L 3.886719 0 L 2.195312 0 L 2.195312 -0.105469 L 2.328125 -0.113281 C 2.371094 -0.117188 2.410156 -0.125 2.445312 -0.140625 C 2.480469 -0.15625 2.5 -0.179688 2.5 -0.214844 C 2.5 -0.242188 2.492188 -0.269531 2.480469 -0.292969 C 2.46875 -0.316406 2.449219 -0.34375 2.425781 -0.375 L 1.25 -1.925781 L 1.25 -0.519531 C 1.25 -0.34375 1.3125 -0.230469 1.441406 -0.171875 C 1.519531 -0.136719 1.648438 -0.117188 1.835938 -0.113281 L 1.835938 0 L 0.015625 0 Z "/>
</g>
<g id="glyph-0-5">
<path d="M 1.78125 -3.5625 C 2.136719 -3.5625 2.449219 -3.4375 2.71875 -3.191406 C 2.988281 -2.945312 3.121094 -2.59375 3.121094 -2.140625 L 0.710938 -2.140625 C 0.734375 -1.554688 0.867188 -1.125 1.109375 -0.859375 C 1.347656 -0.589844 1.632812 -0.457031 1.964844 -0.457031 C 2.230469 -0.457031 2.453125 -0.523438 2.636719 -0.664062 C 2.816406 -0.804688 2.984375 -1 3.140625 -1.257812 L 3.273438 -1.210938 C 3.167969 -0.890625 2.976562 -0.59375 2.691406 -0.320312 C 2.40625 -0.046875 2.058594 0.0898438 1.644531 0.0898438 C 1.167969 0.0898438 0.800781 -0.0898438 0.542969 -0.449219 C 0.28125 -0.808594 0.152344 -1.222656 0.152344 -1.691406 C 0.152344 -2.199219 0.300781 -2.636719 0.605469 -3.007812 C 0.90625 -3.378906 1.296875 -3.5625 1.78125 -3.5625 Z M 1.5625 -3.285156 C 1.273438 -3.285156 1.050781 -3.15625 0.898438 -2.902344 C 0.820312 -2.765625 0.761719 -2.59375 0.726562 -2.386719 L 2.328125 -2.386719 C 2.300781 -2.636719 2.25 -2.828125 2.183594 -2.949219 C 2.058594 -3.171875 1.851562 -3.285156 1.5625 -3.285156 Z "/>
</g>
<g id="glyph-0-6">
<rect x="0" y="0" width="0" height="0" mask="url(#mask-0)"/>
</g>
<g id="glyph-0-7">
<path d="M 0.5 -1.566406 C 0.632812 -1.214844 0.789062 -0.9375 0.964844 -0.730469 C 1.273438 -0.367188 1.65625 -0.1875 2.113281 -0.1875 C 2.363281 -0.1875 2.578125 -0.265625 2.757812 -0.421875 C 2.941406 -0.578125 3.03125 -0.796875 3.03125 -1.078125 C 3.03125 -1.332031 2.9375 -1.550781 2.757812 -1.738281 C 2.636719 -1.859375 2.386719 -2.035156 2.003906 -2.273438 L 1.339844 -2.6875 C 1.140625 -2.816406 0.980469 -2.941406 0.863281 -3.070312 C 0.640625 -3.316406 0.53125 -3.589844 0.53125 -3.886719 C 0.53125 -4.277344 0.660156 -4.605469 0.921875 -4.863281 C 1.183594 -5.125 1.527344 -5.253906 1.960938 -5.253906 C 2.136719 -5.253906 2.351562 -5.210938 2.597656 -5.125 C 2.847656 -5.039062 2.992188 -4.992188 3.027344 -4.992188 C 3.125 -4.992188 3.1875 -5.015625 3.226562 -5.0625 C 3.261719 -5.109375 3.292969 -5.171875 3.3125 -5.253906 L 3.472656 -5.253906 L 3.640625 -3.601562 L 3.457031 -3.601562 C 3.328125 -4.097656 3.125 -4.445312 2.847656 -4.644531 C 2.566406 -4.84375 2.289062 -4.941406 2.015625 -4.941406 C 1.804688 -4.941406 1.617188 -4.878906 1.460938 -4.753906 C 1.300781 -4.628906 1.222656 -4.453125 1.222656 -4.230469 C 1.222656 -4.03125 1.285156 -3.859375 1.40625 -3.71875 C 1.527344 -3.574219 1.714844 -3.421875 1.972656 -3.265625 L 2.65625 -2.84375 C 3.082031 -2.582031 3.382812 -2.339844 3.558594 -2.117188 C 3.730469 -1.894531 3.816406 -1.632812 3.816406 -1.328125 C 3.816406 -0.921875 3.664062 -0.582031 3.355469 -0.308594 C 3.046875 -0.0351562 2.65625 0.101562 2.175781 0.101562 C 1.933594 0.101562 1.683594 0.0585938 1.421875 -0.0351562 C 1.160156 -0.125 1.011719 -0.171875 0.972656 -0.171875 C 0.882812 -0.171875 0.820312 -0.144531 0.789062 -0.0859375 C 0.757812 -0.03125 0.734375 0.0273438 0.726562 0.0898438 L 0.554688 0.0898438 L 0.324219 -1.566406 Z "/>
</g>
<g id="glyph-0-8">
<path d="M 0.0351562 -0.125 C 0.265625 -0.144531 0.421875 -0.1875 0.496094 -0.25 C 0.574219 -0.3125 0.613281 -0.441406 0.613281 -0.644531 L 0.613281 -2.359375 C 0.613281 -2.609375 0.589844 -2.789062 0.542969 -2.894531 C 0.496094 -3.003906 0.410156 -3.058594 0.285156 -3.058594 C 0.257812 -3.058594 0.226562 -3.054688 0.183594 -3.046875 C 0.140625 -3.039062 0.0976562 -3.03125 0.0546875 -3.023438 L 0.0546875 -3.148438 C 0.199219 -3.199219 0.34375 -3.25 0.496094 -3.304688 C 0.648438 -3.355469 0.753906 -3.394531 0.8125 -3.417969 C 0.9375 -3.464844 1.070312 -3.519531 1.203125 -3.582031 C 1.222656 -3.582031 1.230469 -3.574219 1.234375 -3.5625 C 1.238281 -3.550781 1.242188 -3.523438 1.242188 -3.480469 L 1.242188 -2.859375 C 1.402344 -3.085938 1.558594 -3.261719 1.710938 -3.386719 C 1.863281 -3.515625 2.019531 -3.578125 2.179688 -3.578125 C 2.308594 -3.578125 2.414062 -3.539062 2.496094 -3.460938 C 2.578125 -3.382812 2.617188 -3.289062 2.617188 -3.171875 C 2.617188 -3.066406 2.585938 -2.980469 2.523438 -2.910156 C 2.460938 -2.839844 2.382812 -2.800781 2.289062 -2.800781 C 2.195312 -2.800781 2.097656 -2.847656 2 -2.933594 C 1.902344 -3.023438 1.824219 -3.070312 1.769531 -3.070312 C 1.679688 -3.070312 1.570312 -2.996094 1.441406 -2.855469 C 1.3125 -2.710938 1.25 -2.5625 1.25 -2.410156 L 1.25 -0.699219 C 1.25 -0.480469 1.300781 -0.328125 1.402344 -0.246094 C 1.503906 -0.160156 1.671875 -0.121094 1.90625 -0.125 L 1.90625 0 L 0.0351562 0 Z "/>
</g>
<g id="glyph-0-9">
<path d="M 0.199219 -1.761719 C 0.199219 -2.265625 0.359375 -2.691406 0.679688 -3.039062 C 1 -3.386719 1.410156 -3.5625 1.914062 -3.5625 C 2.414062 -3.5625 2.832031 -3.398438 3.160156 -3.070312 C 3.488281 -2.738281 3.652344 -2.300781 3.652344 -1.753906 C 3.652344 -1.25 3.492188 -0.8125 3.175781 -0.441406 C 2.855469 -0.0703125 2.441406 0.117188 1.9375 0.117188 C 1.449219 0.117188 1.039062 -0.0625 0.703125 -0.417969 C 0.367188 -0.773438 0.199219 -1.222656 0.199219 -1.761719 Z M 1.808594 -3.335938 C 1.609375 -3.335938 1.433594 -3.269531 1.289062 -3.136719 C 1.035156 -2.90625 0.90625 -2.507812 0.90625 -1.945312 C 0.90625 -1.492188 1.007812 -1.074219 1.214844 -0.683594 C 1.417969 -0.292969 1.699219 -0.0976562 2.0625 -0.0976562 C 2.347656 -0.0976562 2.5625 -0.230469 2.71875 -0.488281 C 2.871094 -0.75 2.945312 -1.09375 2.945312 -1.515625 C 2.945312 -1.953125 2.847656 -2.367188 2.65625 -2.753906 C 2.460938 -3.140625 2.175781 -3.335938 1.808594 -3.335938 Z "/>
</g>
</g>
<image id="source-44" x="0" y="0" width="0" height="0"/>
<mask id="mask-0">
<use xlink:href="#source-44"/>
</mask>
</defs>
<g fill="rgb(34.509804%, 76.862745%, 86.666667%)" fill-opacity="1">
<use xlink:href="#glyph-0-0" x="30" y="25.833008"/>
<use xlink:href="#glyph-0-1" x="33" y="25.833008"/>
<use xlink:href="#glyph-0-2" x="37" y="25.833008"/>
<use xlink:href="#glyph-0-3" x="39" y="25.833008"/>
<use xlink:href="#glyph-0-4" x="42" y="25.833008"/>
<use xlink:href="#glyph-0-5" x="46" y="25.833008"/>
<use xlink:href="#glyph-0-6" x="49" y="25.833008"/>
<use xlink:href="#glyph-0-7" x="51" y="25.833008"/>
<use xlink:href="#glyph-0-2" x="55" y="25.833008"/>
<use xlink:href="#glyph-0-8" x="57" y="25.833008"/>
<use xlink:href="#glyph-0-9" x="60" y="25.833008"/>
<use xlink:href="#glyph-0-4" x="64" y="25.833008"/>
<use xlink:href="#glyph-0-5" x="68" y="25.833008"/>
</g>
</svg>
